<svg width="201" height="200" viewBox="0 0 201 200" fill="none" xmlns="http://www.w3.org/2000/svg">
<path d="M107.871 182.4C107.871 184.048 107.503 185.52 106.767 186.816C106.015 188.128 104.999 189.144 103.719 189.864C102.423 190.6 100.975 190.968 99.3749 190.968C97.5029 190.968 95.8629 190.488 94.4549 189.528C93.0469 188.568 92.0629 187.24 91.5029 185.544H95.3669C95.7509 186.344 96.2949 186.944 96.9989 187.344C97.6869 187.744 98.4869 187.944 99.3989 187.944C100.375 187.944 101.247 187.712 102.015 187.248C102.767 186.8 103.359 186.16 103.791 185.328C104.207 184.496 104.415 183.52 104.415 182.4C104.415 181.296 104.207 180.32 103.791 179.472C103.359 178.64 102.767 177.992 102.015 177.528C101.247 177.08 100.375 176.856 99.3989 176.856C98.4869 176.856 97.6869 177.056 96.9989 177.456C96.2949 177.872 95.7509 178.48 95.3669 179.28H91.5029C92.0629 177.568 93.0469 176.232 94.4549 175.272C95.8469 174.328 97.4869 173.856 99.3749 173.856C100.975 173.856 102.423 174.216 103.719 174.936C104.999 175.672 106.015 176.688 106.767 177.984C107.503 179.28 107.871 180.752 107.871 182.4Z" fill="#7D8083"/>
<path d="M80.9904 171.564L83.1411 178.751L84.6854 179.103L86.138 172.739L89.4137 173.487L85.6861 189.819L79.5557 188.42C78.2922 188.131 77.2675 187.659 76.4816 187.004C75.6922 186.364 75.1663 185.612 74.904 184.748C74.6225 183.896 74.5886 183.002 74.8022 182.067C75.0479 180.99 75.5824 180.087 76.4057 179.355C77.2255 178.64 78.2889 178.259 79.596 178.213L77.1998 170.699L80.9904 171.564ZM84.1246 181.56L81.387 180.935C80.4979 180.733 79.7869 180.792 79.254 181.113C78.7175 181.45 78.362 182.001 78.1876 182.765C78.0167 183.514 78.1033 184.141 78.4475 184.646C78.7882 185.167 79.4031 185.529 80.2922 185.732L83.0298 186.357L84.1246 181.56Z" fill="#7D8083"/>
<path d="M62.5854 179.699L64.4077 175.915L59.3262 173.468L60.4821 171.068L65.5635 173.515L67.49 169.515L61.7598 166.755L62.9469 164.29L71.7043 168.507L64.4255 183.622L55.6681 179.405L56.8552 176.94L62.5854 179.699Z" fill="#7D8083"/>
<path d="M49.2617 158.27L54.4781 162.43L57.3314 160.622L60.0897 162.822L44.9203 172.182L41.8618 169.743L47.6117 152.871L50.3887 155.086L49.2617 158.27ZM48.2988 160.94L45.8245 167.93L52.0891 163.963L48.2988 160.94Z" fill="#7D8083"/>
<path d="M25.2251 151.79L27.3454 150.099L30.1287 153.589L41.1056 144.836L43.2005 147.462L32.2236 156.216L35.0069 159.706L32.8865 161.397L25.2251 151.79Z" fill="#7D8083"/>
<path d="M17.2911 137.415L32.3841 130.147L33.842 133.174L18.7489 140.442L17.2911 137.415Z" fill="#7D8083"/>
<path d="M9.70474 112.226L27.4039 114.489L28.3118 118.466L13.347 128.184L12.5459 124.674L24.5066 117.218L10.5005 115.713L9.70474 112.226Z" fill="#7D8083"/>
<path d="M11.96 100.871H16.16L16.16 95.2307H18.824L18.824 100.871H23.264L23.264 94.5107H26L26 104.231L9.224 104.231L9.224 94.5107H11.96L11.96 100.871Z" fill="#7D8083"/>
<path d="M33.7082 67.4909C33.4444 68.0386 33.06 68.4129 32.5549 68.6136C32.0423 68.793 31.5337 68.7612 31.0292 68.5182C30.5246 68.2752 30.1899 67.9009 30.025 67.3953C29.8525 66.8683 29.8982 66.3309 30.162 65.7831C30.4189 65.2497 30.8036 64.8933 31.3162 64.714C31.8144 64.5277 32.3157 64.556 32.8203 64.799C33.3248 65.042 33.6668 65.4197 33.8461 65.9323C34.0111 66.438 33.9651 66.9575 33.7082 67.4909Z" fill="#7D8083"/>
<path d="M54.4815 37.5676L49.2651 41.7275L50.3921 44.9114L47.6338 47.1111L41.8839 30.2392L44.9424 27.8001L60.1118 37.1602L57.3348 39.3748L54.4815 37.5676ZM52.0925 36.0346L45.8279 32.0669L48.3022 39.0573L52.0925 36.0346Z" fill="#7D8083"/>
<path d="M66.9636 20.7764C66.3122 20.3087 65.6039 20.0549 64.8388 20.0149C64.0736 19.9749 63.2874 20.1493 62.4802 20.538C61.5864 20.9684 60.8908 21.5521 60.3932 22.2889C59.8956 23.0258 59.6327 23.8627 59.6045 24.7998C59.5763 25.7368 59.7982 26.6955 60.2703 27.6757C60.7562 28.6848 61.3743 29.4704 62.1245 30.0326C62.8891 30.5878 63.7218 30.8972 64.6225 30.9607C65.5233 31.0241 66.4422 30.8302 67.3792 30.379C68.5324 29.8236 69.3308 29.0662 69.7745 28.1067C70.2111 27.1328 70.281 26.0425 69.984 24.8358L64.7945 27.335L63.6802 25.0213L71.8538 21.0851L73.1242 23.7232C73.4292 24.8727 73.4653 26.054 73.2326 27.2671C72.9999 28.4802 72.4893 29.614 71.7008 30.6686C70.9197 31.7018 69.8805 32.5308 68.5831 33.1556C67.1271 33.8568 65.6519 34.1676 64.1575 34.0882C62.6705 33.9874 61.307 33.5163 60.0672 32.6749C58.8418 31.8266 57.8715 30.66 57.1565 29.1752C56.4415 27.6904 56.1343 26.2045 56.2351 24.7176C56.3434 23.2092 56.8252 21.8495 57.6804 20.6385C58.5432 19.4061 59.6953 18.4428 61.1369 17.7486C62.8379 16.9295 64.5168 16.6359 66.1736 16.8681C67.8235 17.0858 69.2472 17.8297 70.4449 19.0998L66.9636 20.7764Z" fill="#7D8083"/>
<path d="M79.5604 14.3611L80.495 18.4558L85.9936 17.2008L86.5863 19.798L81.0878 21.053L82.0757 25.3817L88.2763 23.9664L88.8851 26.6339L79.4088 28.7968L75.6758 12.4414L85.1521 10.2785L85.7609 12.9459L79.5604 14.3611Z" fill="#7D8083"/>
<path d="M107.16 26H103.8L96.1918 14.504V26H92.8318V9.224L96.1918 9.224L103.8 20.744V9.224H107.16V26Z" fill="#7D8083"/>
<path d="M110.662 17.9145C111.029 16.3078 111.715 14.9546 112.721 13.8549C113.746 12.7431 114.963 11.9787 116.371 11.5615C117.798 11.1324 119.292 11.0958 120.852 11.4518C122.677 11.8684 124.169 12.7013 125.328 13.9505C126.487 15.1998 127.151 16.7134 127.319 18.4915L123.552 17.6317C123.356 16.7663 122.959 16.0603 122.362 15.5137C121.78 14.9706 121.045 14.5976 120.155 14.3947C119.204 14.1775 118.302 14.2096 117.45 14.4911C116.617 14.7606 115.898 15.2528 115.291 15.9678C114.701 16.6864 114.281 17.5916 114.031 18.6835C113.786 19.7598 113.771 20.7577 113.988 21.677C114.224 22.5842 114.657 23.3477 115.287 23.9674C115.936 24.5751 116.737 24.9875 117.688 25.2047C118.577 25.4076 119.402 25.3907 120.161 25.1538C120.94 24.9049 121.606 24.4332 122.158 23.7387L125.925 24.5985C124.999 26.143 123.742 27.2265 122.156 27.8491C120.588 28.4597 118.885 28.5549 117.044 28.1348C115.484 27.7788 114.152 27.1056 113.049 26.1153C111.965 25.1129 111.201 23.8963 110.756 22.4654C110.327 21.0382 110.295 19.5212 110.662 17.9145Z" fill="#7D8083"/>
<path d="M145.995 21.4231L136.154 28.8041L133.624 34.0586L130.597 32.6007L133.127 27.3463L132.74 15.0398L136.157 16.685L136.078 25.1448L142.622 19.7986L145.995 21.4231Z" fill="#7D8083"/>
<path d="M158.053 54.3784C157.674 53.903 157.503 53.3943 157.542 52.8521C157.602 52.3124 157.852 51.868 158.289 51.5189C158.727 51.1697 159.21 51.0305 159.737 51.1013C160.287 51.1746 160.751 51.449 161.13 51.9243C161.499 52.3872 161.653 52.8884 161.592 53.4281C161.544 53.9577 161.301 54.3971 160.863 54.7463C160.425 55.0954 159.937 55.2396 159.397 55.1788C158.87 55.108 158.422 54.8412 158.053 54.3784Z" fill="#7D8083"/>
<path d="M191.204 91.7536L173.83 90.9186L172.949 87.0578L183.878 81.3384L171.518 80.7871L170.619 76.9551L185.97 68.8232L186.771 72.333L174.746 78.1055L188.186 78.5335L189.019 82.1837L177.123 88.1976L190.397 88.2204L191.204 91.7536Z" fill="#7D8083"/>
<path d="M190.752 102.176H174V98.8162H190.752V102.176Z" fill="#7D8083"/>
<path d="M170.551 123.447L171.299 120.171L184.2 115.312L172.992 112.754L173.74 109.478L190.095 113.211L189.347 116.487L176.423 121.341L187.655 123.904L186.907 127.18L170.551 123.447Z" fill="#7D8083"/>
<path d="M163.565 138.558L165.023 135.531L178.682 133.664L168.324 128.676L169.782 125.649L184.897 132.928L183.439 135.955L169.759 137.811L180.138 142.81L178.68 145.837L163.565 138.558Z" fill="#7D8083"/>
<path d="M169.375 154.211L166.092 151.593L162.575 156.002L160.492 154.341L164.009 149.932L160.538 147.163L156.572 152.136L154.433 150.43L160.493 142.831L173.609 153.29L167.549 160.89L165.41 159.184L169.375 154.211Z" fill="#7D8083"/>
<path d="M144.099 159.482L151.059 162.281L152.297 161.294L148.227 156.19L150.854 154.095L161.299 167.192L156.382 171.113C155.369 171.921 154.361 172.428 153.359 172.634C152.367 172.852 151.451 172.794 150.612 172.461C149.77 172.149 149.05 171.619 148.452 170.868C147.763 170.005 147.39 169.024 147.332 167.924C147.283 166.837 147.649 165.768 148.427 164.717L141.059 161.906L144.099 159.482ZM153.868 163.264L151.673 165.015C150.96 165.583 150.563 166.176 150.482 166.793C150.411 167.423 150.62 168.044 151.109 168.657C151.588 169.257 152.132 169.581 152.741 169.627C153.361 169.685 154.027 169.43 154.74 168.861L156.936 167.111L153.868 163.264Z" fill="#7D8083"/>
<path d="M115.916 172.098C116.508 171.963 117.041 172.03 117.512 172.3C117.972 172.589 118.265 173.006 118.389 173.552C118.514 174.098 118.43 174.593 118.137 175.037C117.833 175.501 117.384 175.8 116.791 175.935C116.214 176.067 115.696 175.989 115.236 175.7C114.78 175.426 114.489 175.017 114.365 174.471C114.24 173.925 114.322 173.422 114.611 172.962C114.904 172.518 115.338 172.23 115.916 172.098Z" fill="#7D8083"/>
</svg>
